<?xml version="1.0" standalone="no"?>
<!DOCTYPE svg PUBLIC "-//W3C//DTD SVG 20010904//EN"
 "http://www.w3.org/TR/2001/REC-SVG-20010904/DTD/svg10.dtd">
<svg version="1.0" xmlns="http://www.w3.org/2000/svg"
 width="199.000000pt" height="199.000000pt" viewBox="0 0 199.000000 199.000000"
 preserveAspectRatio="xMidYMid meet">
<metadata>
Created by potrace 1.14, written by Peter Selinger 2001-2017
</metadata>
<g transform="translate(0.000000,199.000000) scale(0.100000,-0.100000)"
fill="#000000" stroke="none">
<path d="M1095 1760 c-16 -11 -46 -27 -65 -37 -19 -9 -37 -20 -40 -23 -3 -4
-20 -13 -37 -21 -18 -8 -33 -17 -33 -21 0 -5 -5 -8 -10 -8 -11 0 -60 -32 -92
-61 -17 -15 -18 -25 -8 -140 6 -68 12 -142 15 -164 2 -22 4 -48 4 -57 1 -10
33 -36 79 -64 42 -26 112 -69 154 -96 42 -26 84 -48 92 -48 8 0 36 13 62 29
25 17 59 33 75 36 16 4 31 10 34 14 2 4 33 22 67 40 35 17 73 45 86 61 23 29
23 31 13 167 -6 76 -11 152 -11 169 0 36 -21 63 -70 90 -19 10 -40 24 -47 31
-7 6 -26 17 -43 25 -16 7 -30 16 -30 20 0 5 -4 8 -10 8 -5 0 -34 16 -64 35
-62 39 -78 41 -121 15z"/>
<path d="M478 1243 c-10 -2 -18 -11 -18 -19 0 -8 -7 -14 -15 -14 -8 0 -15 -4
-15 -10 0 -5 -3 -9 -7 -8 -15 3 -43 -14 -37 -23 3 -5 -2 -6 -11 -3 -8 4 -30
-5 -49 -19 -18 -15 -36 -23 -40 -20 -3 3 -8 -2 -12 -11 -3 -9 -12 -16 -20 -16
-8 0 -14 -5 -14 -12 0 -6 -3 -8 -6 -5 -9 9 -66 -32 -59 -43 3 -4 -3 -7 -13 -6
-9 0 -16 -5 -14 -12 1 -8 -2 -11 -7 -7 -21 12 -31 -39 -30 -150 1 -84 4 -113
12 -108 9 5 9 3 2 -8 -10 -14 -11 -42 -2 -84 3 -11 0 -25 -5 -32 -6 -7 -3 -15
9 -22 10 -6 13 -11 7 -11 -14 0 -5 -60 9 -60 6 0 7 -3 4 -7 -7 -6 10 -18 63
-45 14 -7 30 -19 36 -27 7 -8 16 -11 24 -6 8 5 11 4 6 -3 -3 -6 3 -13 14 -17
11 -3 20 -11 20 -16 0 -6 5 -7 10 -4 6 3 10 1 10 -4 0 -6 7 -11 15 -11 8 0 15
-4 15 -9 0 -5 8 -11 18 -14 19 -6 74 -38 82 -48 3 -4 15 -9 28 -13 12 -4 22
-11 22 -16 0 -11 15 -8 73 14 26 10 47 23 47 27 0 5 3 8 8 7 12 -3 67 26 76
40 7 12 10 12 17 1 7 -11 9 -11 9 2 0 10 7 16 18 15 9 0 16 5 14 12 -1 8 2 10
8 7 6 -4 20 1 32 12 11 10 23 18 27 18 3 0 5 4 3 8 -1 5 1 6 6 3 5 -3 20 5 33
17 13 12 27 22 31 22 12 0 50 46 44 52 -3 3 -1 12 5 20 9 9 8 13 0 13 -6 0
-10 3 -10 7 1 5 0 13 -1 18 -6 25 -4 41 5 47 6 5 5 8 -4 8 -11 0 -11 3 -1 15
7 8 9 15 4 15 -5 0 -10 11 -10 25 -1 14 3 25 10 25 6 0 4 5 -4 10 -13 9 -13
11 0 20 10 6 11 10 3 10 -8 0 -11 11 -9 30 2 17 0 33 -5 36 -5 3 -9 10 -9 15
0 6 5 7 12 3 7 -5 8 -3 3 6 -8 13 -12 34 -17 93 -1 15 -8 27 -16 27 -7 0 -10
5 -7 10 3 6 -1 10 -10 10 -18 0 -46 24 -40 34 3 3 -1 2 -7 -4 -9 -8 -17 -5
-28 9 -8 11 -22 21 -30 23 -22 5 -39 22 -32 33 3 6 2 7 -3 3 -9 -8 -65 22 -65
35 0 4 -4 6 -9 3 -5 -3 -14 1 -21 9 -7 8 -19 15 -26 15 -8 0 -14 3 -14 8 0 4
-15 14 -32 21 -18 8 -39 21 -46 28 -13 13 -31 15 -64 6z"/>
<path d="M1385 957 c-50 -29 -102 -58 -116 -65 -14 -8 -48 -30 -75 -51 l-49
-37 0 -64 c1 -115 17 -279 30 -300 8 -12 165 -115 242 -157 59 -33 65 -34 100
-22 60 19 203 93 261 135 l54 39 -7 140 c-6 130 -10 193 -14 222 -1 9 -320
214 -332 213 -2 -1 -45 -24 -94 -53z"/>
</g>
</svg>
